# xmcd
#
# Track frame offsets:
#	150
#	15584
#	33536
#	52133
#	65734
#	77027
#	93730
#	121153
#	133080
#
# Disc length: 2032 seconds
#
# Revision: 1
# Processed by: cddbd v1.5.2PL0 Copyright (c) Steve Scherf et al.
# Submitted via: audiograbber 1.83.01
#
DISCID=7d07ee09
DTITLE=Blue Steel - Gone Country, 1999
DYEAR=1999
DGENRE=Country
TTITLE0=Mercury Blues
TTITLE1=Gone Country
TTITLE2=Driving My Live Away
TTITLE3=Every Little Thing
TTITLE4=Blue Moon Of Kentucky
TTITLE5=Good Hearted Woman
TTITLE6=Friends In Low Places
TTITLE7=Six Days On The Road
TTITLE8=Gone Country (Acoustic Remix)
EXTD=Band from Wolfsburg, Germany
EXTT0=
EXTT1=
EXTT2=
EXTT3=
EXTT4=
EXTT5=
EXTT6=
EXTT7=
EXTT8=
PLAYORDER=
